<svg width="25" height="25" viewBox="0 0 25 25" fill="none" xmlns="http://www.w3.org/2000/svg">
<path d="M10.9 3.90995L11.46 5.16995C11.6254 5.53947 11.6748 5.95049 11.6015 6.34866C11.5283 6.74684 11.336 7.11342 11.05 7.39995L10.22 8.22995C9.89856 8.56031 9.70109 8.99156 9.661 9.45075C9.62091 9.90994 9.74067 10.3689 10 10.7499L10.59 11.6299C11.4562 12.9605 12.5779 14.106 13.89 14.9999L14.77 15.5899C15.1544 15.8455 15.6153 15.9602 16.0746 15.9146C16.5339 15.869 16.9633 15.666 17.29 15.3399L18.15 14.4799C18.4293 14.1801 18.7938 13.9733 19.1945 13.8875C19.5951 13.8016 20.0124 13.8409 20.39 13.9999L21.65 14.5799C22.2389 14.8467 22.7544 15.2523 23.1523 15.7618C23.5502 16.2714 23.8186 16.8699 23.9346 17.5059C24.0506 18.1419 24.0107 18.7966 23.8183 19.4138C23.626 20.0311 23.2868 20.5925 22.83 21.0499L22.25 21.6299C20.8235 23.056 18.911 23.8907 16.8954 23.9667C14.8798 24.0427 12.9098 23.3545 11.38 22.0399L11.32 21.9999C8.51848 19.6063 5.90728 16.9984 3.51 14.1999L3.45 14.1399C2.13542 12.6101 1.44724 10.6402 1.52327 8.62454C1.59929 6.60892 2.43391 4.6964 3.86 3.26995L4.42 2.71995C4.8781 2.26128 5.44082 1.92082 6.05969 1.72789C6.67857 1.53496 7.33507 1.49533 7.97266 1.61242C8.61025 1.72951 9.20983 1.99981 9.71978 2.40004C10.2297 2.80027 10.6348 3.31844 10.9 3.90995Z" stroke="black" stroke-width="2" stroke-linecap="round" stroke-linejoin="round"/>
</svg>
